<svg width="19" height="22" viewBox="0 0 19 22" fill="none" xmlns="http://www.w3.org/2000/svg">
<path fill-rule="evenodd" clip-rule="evenodd" d="M0 1.71089C0 0.76599 0.76599 0 1.71089 0H17.1089C18.0538 0 18.8198 0.76599 18.8198 1.71089V17.1089C18.8198 18.0538 18.0538 18.8198 17.1089 18.8198H7.13145L4.57616 20.9297C4.24445 21.2036 3.74366 20.9676 3.74366 20.5375V18.8198H1.71089C0.76599 18.8198 0 18.0538 0 17.1089V1.71089ZM3.74233 3.10946H11.9675C13.7438 3.10946 15.1839 4.5495 15.1839 6.32587C15.1839 7.74936 14.2592 8.95687 12.9777 9.38045C14.4761 9.65447 15.6117 10.9667 15.6117 12.5443C15.6117 14.3207 14.1717 15.7607 12.3953 15.7607H3.74247V9.54229H3.74233V3.10946ZM10.583 6.00384H6.73607V7.93369H10.583C11.1159 7.93369 11.5479 7.50168 11.5479 6.96877C11.5479 6.43585 11.1159 6.00384 10.583 6.00384ZM6.73607 10.2925H10.9035C11.4956 10.2925 11.9757 10.7725 11.9757 11.3647C11.9757 11.9568 11.4956 12.4368 10.9035 12.4368H6.73607V10.2925Z" fill="#1F1F1F"/>
</svg>
