<svg width="103" height="22" viewBox="0 0 103 22" fill="none" xmlns="http://www.w3.org/2000/svg">
<path d="M29.0287 14.9132C28.2686 14.9132 27.5302 14.8018 26.7918 14.5568C26.0988 14.3265 25.462 13.9468 24.924 13.4432L25.9013 11.7504C26.4443 12.1291 26.9655 12.4186 27.4867 12.6414C27.9862 12.8641 28.4858 12.9532 28.9636 12.9532C29.3111 12.9532 29.5934 12.8864 29.7888 12.7527C29.9843 12.6414 30.0712 12.4409 30.0712 12.1959C30.0712 11.9732 29.9626 11.7504 29.702 11.6168C29.2938 11.4162 28.8636 11.2666 28.4206 11.1714L26.9003 10.6591C26.4877 10.4809 26.1619 10.3027 25.9013 10.1023C25.6407 9.92408 25.4452 9.67908 25.3366 9.43408C25.2184 9.1529 25.1592 8.84935 25.1629 8.54317C25.1502 7.66646 25.5255 6.83107 26.1836 6.27136C26.4877 6.00408 26.8786 5.80363 27.313 5.64772C27.7473 5.49181 28.2251 5.42499 28.7247 5.42499C29.3979 5.42499 30.0277 5.51408 30.6141 5.69226C31.2005 5.89272 31.7652 6.22681 32.3081 6.71681L31.244 8.38726C30.8236 8.07881 30.3722 7.81747 29.8974 7.60772C29.4848 7.42954 29.1156 7.36272 28.7247 7.36272C28.4423 7.36272 28.1817 7.40726 27.9862 7.5409C27.7691 7.65226 27.6822 7.85272 27.6822 8.11999C27.6822 8.38726 27.7908 8.56545 28.008 8.69908C28.2251 8.83272 28.6595 8.96635 29.2459 9.12226C29.7903 9.26289 30.3268 9.4339 30.853 9.63454C31.2874 9.81272 31.6349 10.0132 31.9172 10.2136C32.4511 10.6169 32.7463 11.2726 32.6991 11.9509C32.6991 12.8641 32.3733 13.5768 31.7 14.1114C31.0485 14.6459 30.1798 14.9132 29.0287 14.9132ZM39.7792 14.2673C39.41 14.4232 38.9756 14.5791 38.4978 14.7127C38.02 14.8464 37.5422 14.9354 37.0427 14.9354C36.6952 14.9354 36.3911 14.8909 36.0871 14.8018C35.7915 14.7134 35.5176 14.5616 35.2835 14.3564C35.0663 14.1782 34.8926 13.9109 34.7623 13.6214C34.632 13.3095 34.5451 12.9309 34.5451 12.4854V7.69681H33.4158V5.60317H34.5668V2.68545H37.2599V5.5809H39.0842V7.69681H37.2599V11.5277C37.2599 11.8173 37.325 12.04 37.4771 12.1959C37.6291 12.3073 37.8245 12.3741 38.0417 12.3741C38.2589 12.3741 38.4761 12.3518 38.6715 12.2627C38.8887 12.1959 39.0842 12.1291 39.2362 12.04L39.7575 14.2673H39.7792ZM44.8612 14.9132C44.1701 14.9255 43.4835 14.7968 42.8414 14.5345C41.7112 14.076 40.8261 13.1439 40.409 11.9732C39.9823 10.8102 39.9823 9.52792 40.409 8.36499C40.8261 7.19423 41.7112 6.26214 42.8414 5.80363C43.4278 5.55863 44.1011 5.42499 44.8612 5.42499C46.1833 5.36117 47.4671 5.88947 48.3795 6.87272C48.7922 7.2959 49.0962 7.80817 49.3134 8.36499C49.758 9.5322 49.758 10.8282 49.3134 11.9954C48.8937 13.1518 48.0186 14.0734 46.9027 14.5345C46.2538 14.7998 45.5596 14.9285 44.8612 14.9132ZM42.9066 10.1914C42.9066 10.9041 43.0803 11.4832 43.4495 11.9064C43.8405 12.3518 44.3183 12.5745 44.8829 12.5745C45.4284 12.5853 45.9487 12.3391 46.2946 11.9064C46.4683 11.6836 46.5987 11.4609 46.7072 11.1491C46.8158 10.8595 46.8593 10.5254 46.8593 10.1914C46.8593 9.45636 46.6638 8.87726 46.2946 8.45408C45.9254 8.00863 45.4476 7.78589 44.8829 7.78589C44.3394 7.78464 43.8229 8.02909 43.4712 8.45408C43.2975 8.67681 43.1455 8.89954 43.0369 9.21136C42.939 9.52794 42.8949 9.85944 42.9066 10.1914ZM56.6541 7.98636C56.0026 7.98636 55.3945 8.09772 54.8515 8.32045C54.3736 8.48572 53.9666 8.81646 53.7005 9.2559V14.7573H50.9857V5.60317H53.4833V7.42954C53.7873 6.8059 54.1783 6.3159 54.6778 5.98181C55.1556 5.62545 55.6551 5.44726 56.1981 5.42499H56.4804L56.6541 5.44726V7.96408V7.98636ZM57.8486 16.1159C58.2263 16.2505 58.6217 16.3256 59.0214 16.3386C59.3472 16.3386 59.6078 16.2273 59.8033 16.0045C59.977 15.7818 60.129 15.3364 60.2811 14.7573L56.893 5.60317H59.6947L61.7579 12.3518L63.5605 5.60317H66.1015L62.6918 16.2273C62.1569 18.0318 60.3638 19.1157 58.5653 18.7218C58.3481 18.6773 58.0875 18.6104 57.8486 18.4991V16.1159ZM72.5301 14.9133C71.8568 14.9133 71.2487 14.7795 70.7492 14.4677C70.2417 14.1818 69.8208 13.758 69.533 13.2427V14.7573H67.1657V2.01727H69.9022V7.09545C70.4962 6.02938 71.6157 5.38681 72.8124 5.42499C73.3771 5.42499 73.8983 5.53636 74.3761 5.80363C74.8539 6.02636 75.2448 6.38272 75.614 6.8059C76.6831 8.32739 76.974 10.2831 76.3959 12.0623C76.1787 12.6414 75.8746 13.1536 75.5054 13.5768C74.7429 14.4342 73.6616 14.9198 72.5301 14.9133ZM71.7699 12.5745C72.6515 12.5764 73.4369 12.0037 73.7245 11.1491C74.043 10.2518 73.887 9.24956 73.3119 8.49863C72.9724 8.0401 72.4398 7.7753 71.8785 7.7859C71.4659 7.7859 71.0749 7.94181 70.7057 8.23136C70.3582 8.54317 70.0759 8.92181 69.8805 9.38954V11.305C70.2309 12.0628 70.9738 12.5476 71.7916 12.5523L71.7699 12.5745ZM78.0247 2.01727H80.7395V11.4832C80.7395 12.1959 81.0218 12.53 81.6082 12.53C81.9183 12.5309 82.2239 12.4545 82.4987 12.3073L82.8679 14.3786C82.1072 14.7203 81.2875 14.902 80.4572 14.9132C79.6753 14.9132 79.0672 14.6904 78.6546 14.2895C78.2202 13.8441 78.003 13.265 78.003 12.4632V2.01727H78.0247ZM87.9933 14.9132C87.3023 14.9255 86.6157 14.7968 85.9736 14.5345C84.8367 14.0789 83.9437 13.1469 83.5194 11.9732C82.8914 10.2226 83.2408 8.26037 84.4316 6.85045C84.8659 6.40499 85.3437 6.0709 85.9518 5.80363C86.5382 5.55863 87.2115 5.42499 87.9716 5.42499C89.2937 5.36117 90.5776 5.88947 91.49 6.87272C91.9243 7.2959 92.2066 7.80817 92.4238 8.36499C93.0767 10.1133 92.7249 12.0889 91.5117 13.4877C91.099 13.9332 90.5995 14.2895 89.9914 14.5345C89.3493 14.7968 88.6627 14.9255 87.9716 14.9132H87.9933ZM86.017 10.1914C86.017 10.9041 86.1907 11.4832 86.5599 11.9064C86.9509 12.3518 87.4287 12.5745 87.9933 12.5745C88.5382 12.5821 89.0571 12.3364 89.405 11.9064C89.5788 11.6836 89.7091 11.4609 89.8177 11.1491C89.9262 10.8595 89.9697 10.5254 89.9697 10.1914C89.9697 9.45636 89.7742 8.87726 89.405 8.45408C89.0358 8.00863 88.558 7.78589 87.9933 7.78589C87.4498 7.78464 86.9334 8.02909 86.5817 8.45408C86.4079 8.67681 86.2559 8.89954 86.1473 9.21136C86.0387 9.52317 86.017 9.83499 86.017 10.1914ZM100.112 14.7573L97.7882 11.06L96.8326 12.0845V14.7573H94.1178V2.01727H96.8326V9.38954L99.8514 5.60317H102.74L99.5256 9.54545L103.001 14.7573H100.112Z" fill="#F1F1F1"/>
<path fill-rule="evenodd" clip-rule="evenodd" d="M0 1.71089C0 0.76599 0.76599 0 1.71089 0H17.1089C18.0538 0 18.8198 0.76599 18.8198 1.71089V17.1089C18.8198 18.0538 18.0538 18.8198 17.1089 18.8198H7.13145L4.57616 20.9297C4.24445 21.2036 3.74366 20.9676 3.74366 20.5375V18.8198H1.71089C0.76599 18.8198 0 18.0538 0 17.1089V1.71089ZM3.74233 3.10946H11.9675C13.7438 3.10946 15.1839 4.5495 15.1839 6.32587C15.1839 7.74936 14.2592 8.95687 12.9777 9.38045C14.4761 9.65447 15.6117 10.9667 15.6117 12.5443C15.6117 14.3207 14.1717 15.7607 12.3953 15.7607H3.74247V9.54229H3.74233V3.10946ZM10.583 6.00384H6.73607V7.93369H10.583C11.1159 7.93369 11.5479 7.50168 11.5479 6.96877C11.5479 6.43585 11.1159 6.00384 10.583 6.00384ZM6.73607 10.2925H10.9035C11.4956 10.2925 11.9757 10.7725 11.9757 11.3647C11.9757 11.9568 11.4956 12.4368 10.9035 12.4368H6.73607V10.2925Z" fill="#F1F1F1"/>
</svg>
